<?xml version="1.0" standalone="no"?>
<!DOCTYPE svg PUBLIC "-//W3C//DTD SVG 20010904//EN"
 "http://www.w3.org/TR/2001/REC-SVG-20010904/DTD/svg10.dtd">
<svg version="1.0" xmlns="http://www.w3.org/2000/svg"
 width="128.000000pt" height="128.000000pt" viewBox="0 0 128.000000 128.000000"
 preserveAspectRatio="xMidYMid meet">

<g transform="translate(0.000000,128.000000) scale(0.100000,-0.100000)"
 stroke="none">
<path d="M78 1019 c-11 -7 170 -329 187 -330 14 -2 113 174 120 213 6 39 -9
73 -47 101 -23 17 -44 20 -138 21 -61 1 -116 -1 -122 -5z" fill="#ef3e43"/>
<path d="M619 1005 c-30 -16 -269 -419 -269 -453 0 -17 116 -232 125 -232 2 0
75 126 164 279 166 288 179 319 151 372 -24 45 -117 63 -171 34z" fill="#024b60"/>
<path d="M910 1016 c0 -3 9 -20 20 -38 30 -49 25 -85 -21 -163 -103 -175 -310
-536 -315 -550 -5 -13 11 -15 119 -15 104 0 128 3 145 18 12 9 98 150 192 313
188 327 196 348 146 406 -24 28 -26 28 -155 32 -72 1 -131 0 -131 -3z" fill="#024b60"/>
</g>
</svg>
